<svg xmlns="http://www.w3.org/2000/svg" viewBox="0 0 512 512">
  <defs/>
  <path d="M469 345a66 66 0 00-89-83l3-14a8 8 0 10-15-2c-1 9-4 16-8 23a66 66 0 00-68-7c-4-13-13-24-24-32 10-45 70-54 93-14a8 8 0 0013-8c-3-5-6-10-11-14a66 66 0 00-66-97c1-21-4-39-7-48-1-4-4-8-8-9-4-2-9-1-12 1-17 9-31 21-42 34-9-13-20-23-27-29s-17-4-21 4c-18 34-19 64-15 88C110 86 49 66 24 60 14 58 4 65 3 75l-3 36c-1 10 8 18 17 17 48-6 92 12 126 33-36-10-73-5-107 16-8 4-9 15-3 21 6 7 17 17 31 25-13 12-24 27-32 44-4 8 0 18 9 20 8 2 19 4 31 4a66 66 0 00105 77c10 50 71 69 109 35 1 26 19 51 45 59a8 8 0 005-14c-26-8-41-37-34-63 30 8 60-4 75-29 38 22 31 79-11 92a8 8 0 105 14c9-3 17-7 24-14a66 66 0 1074-103zm-190-74a66 66 0 00-24 57 51 51 0 1124-57zm-25-48c-9-4-20-5-29-5-3-22-18-42-39-52l2-5a51 51 0 0196 23c-14 9-25 23-30 39zm63-110c32 7 48 42 34 71-15-8-34-11-52-6-2-21-14-40-31-50 12-14 31-20 49-15zM193 58c25 21 22 32 34 33 14 1 12-16 49-37 3 10 7 28 5 47-10 4-20 11-27 20-26-8-55 0-72 23-8-29-4-57 11-86zM15 113v-1c3-38 3-36 4-37s77 16 140 79c-43-29-92-47-144-41zm144 63c27 0 48 20 51 45-25 8-42 30-45 56a51 51 0 11-6-101zM46 273c19-39 35-37 33-51-1-12-12-9-34-33 25-15 51-21 78-17a66 66 0 00-20 89c-8 4-15 9-20 15-16 1-30-1-37-3zm130 72a51 51 0 11-63-72 65 65 0 0052 19c2 13 7 25 16 35-3 6-4 12-5 18zm22 36c-6-10-9-21-7-32l3-10c19 12 44 14 65 4 5 15 14 27 27 35a51 51 0 01-88 3zm122-8c-70-1-64-104 2-102s66 103-2 102zm63-31c7-20 3-42-9-59a51 51 0 1137 90c-5-13-15-24-28-31zm22 95c10-14 14-32 11-50 19-2 35-12 46-28a51 51 0 11-57 78z"/>
</svg>
